<svg height="464pt" viewBox="-48 0 464 464" width="464pt" xmlns="http://www.w3.org/2000/svg"><path d="m126.3125 156.679688c-8.964844-12.949219-23.714844-20.679688-39.464844-20.679688h-86.847656c6.878906 2.476562 12.625 7.363281 16.175781 13.753906l64.128907 107.910156c11.664062 18.859376 32.257812 30.335938 54.429687 30.335938h81.265625zm0 0" fill="#769c30"/><path d="m46.742188 147.71875 30.746093 56.121094 14.023438-7.679688-30.847657-56.320312c-.789062-1.328125-1.660156-2.613282-2.601562-3.839844h-31.941406c8.457031 0 16.292968 4.453125 20.621094 11.71875zm0 0" fill="#6e912d"/><path d="m58.121094 136c8.484375.007812 16.339844 4.488281 20.664062 11.792969l15.398438 27.453125 13.960937-7.832032-15.480469-27.574218c-.753906-1.253906-1.574218-2.46875-2.464843-3.632813-1.109375-.078125-2.199219-.207031-3.351563-.207031zm0 0" fill="#6e912d"/><path d="m126.3125 156.679688c-3.789062-5.433594-8.660156-10.023438-14.3125-13.480469v140.5625c7.257812 2.78125 14.960938 4.21875 22.734375 4.238281h81.265625zm0 0" fill="#72962e"/><path d="m368 416c-53.019531 0-96-42.980469-96-96v-136h73.921875c12.191406 0 22.078125 9.886719 22.078125 22.078125zm0 0" fill="#7ea633"/><path d="m290.65625 184h-18.65625l-1.9375 7.761719c15.253906 3.796875 25.953125 17.503906 25.9375 33.222656v111.015625h16v-111.015625c-.011719-16.324219-7.976562-31.617187-21.34375-40.984375zm0 0" fill="#769c30"/><path d="m344 368h-16v-132.222656c-.011719-11.433594-3.941406-22.519532-11.128906-31.410156l11.128906-12.367188c9.914062 12.484375 15.523438 27.839844 16 43.777344zm0 0" fill="#769c30"/><path d="m345.921875 184h-80.800781c-15.753906 0-30.5 7.730469-39.464844 20.679688l-57.65625 83.320312h104l57.40625-96.59375c4.195312-4.710938 10.203125-7.40625 16.515625-7.40625" fill="#a2c443"/><path d="m288 184h-22.847656c-15.75 0-30.5 7.730469-39.464844 20.679688l-57.6875 83.320312h104l16-26.921875zm0 0" fill="#9aba40"/><path d="m224 464h-48c-30.414062-25.34375-48-62.890625-48-102.480469v-261.597656c-.011719-45.335937 28.992188-85.585937 72-99.921875 43 14.332031 72 54.570312 72 99.894531v261.601563c.007812 39.597656-17.578125 77.15625-48 102.503906zm0 0" fill="#fdbb3d"/><path d="m128 280v81.519531c0 39.589844 17.585938 77.136719 48 102.480469h48c30.414062-25.34375 48-62.890625 48-102.480469v-273.519531c-40 120-94.703125 157.847656-144 192zm0 0" fill="#f7b016"/><path d="m232 80v-32h26.238281c-3.175781-5.664062-6.871093-11.019531-11.039062-16h-15.199219v-14.625c-5-3.980469-10.355469-7.496094-16-10.503906v25.128906h-32v-25.128906c-5.644531 3.007812-11 6.523437-16 10.503906v14.625h-15.199219c-4.167969 4.980469-7.863281 10.335938-11.039062 16h26.238281v32h-38.03125c-1.015625 5.277344-1.621094 10.628906-1.816406 16h39.847656v32h-40v16h40v32h-40v16h40v32h-40v16h40v32h-40v16h40v32h-40v16h40v32h-39.640625c.261719 5.363281.847656 10.707031 1.753906 16h37.886719v32h-28.257812c2.464843 5.515625 5.292968 10.863281 8.472656 16h19.785156v24.542969c2.59375 2.554687 5.183594 5.105469 8 7.457031h8v-32h32v32h8c2.816406-2.351562 5.40625-4.902344 8-7.457031v-24.542969h19.785156c3.179688-5.136719 6.007813-10.484375 8.472656-16h-28.257812v-32h37.886719c.90625-5.292969 1.492187-10.636719 1.753906-16h-39.640625v-32h40v-16h-40v-32h40v-16h-40v-32h40v-16h-40v-32h40v-16h-40v-32h40v-16h-40v-32h39.847656c-.195312-5.371094-.800781-10.722656-1.816406-16zm-16 336h-32v-32h32zm0-48h-32v-32h32zm0-48h-32v-32h32zm0-48h-32v-32h32zm0-48h-32v-32h32zm0-48h-32v-32h32zm0-48h-32v-32h32zm0-48h-32v-32h32zm0 0" fill="#faa400"/><path d="m128 232v129.519531c0 39.589844 17.585938 77.136719 48 102.480469h48c26.726562-22.289062 43.679688-54.144531 47.238281-88.761719l.761719-31.238281-78.398438-99.769531c-6.066406-7.71875-15.335937-12.226563-25.152343-12.230469zm0 0" fill="#7ea633"/><path d="m152 264h16v16h-16zm0 0" fill="#89b03f"/><path d="m160.632812 404.183594c-5.722656-13.496094-8.660156-28.007813-8.632812-42.664063v-65.519531h16v65.519531c-.023438 12.515625 2.484375 24.902344 7.367188 36.425781zm0 0" fill="#89b03f"/><path d="m173.398438 232.207031c-15.132813-.246093-30.269532-.3125-45.398438-.207031 0 23.800781 1.65625 47.960938.3125 71.710938.457031-15.898438 4.40625-31.5 11.566406-45.703126 7.449219-12.40625 21.402344-18.976562 33.519532-25.800781zm0 0" fill="#769c30"/><path d="m32 464c53.019531 0 96-42.980469 96-96v-104c0-17.671875 14.328125-32 32-32h-32c-53.019531 0-96 42.980469-96 96zm0 0" fill="#a2c443"/><g fill="#94b538"><path d="m88 272.984375v111.015625h16v-111.015625c.042969-15.929687 11.019531-29.746094 26.527344-33.390625l21-7-.191406-.59375h-23.335938c-7.425781.023438-14.824219.914062-22.046875 2.648438-11.367187 9.488281-17.941406 23.527343-17.953125 38.335937zm0 0"/><path d="m56 416h16v-132.222656c.027344-11.5 3.996094-22.644532 11.246094-31.570313l10.65625-13.863281c-12.433594 4.714844-23.753906 11.960938-33.238282 21.28125-3.058593 7.683594-4.640624 15.878906-4.664062 24.152344zm0 0"/></g></svg>